<?xml version="1.0" encoding="utf-8"?>
<!-- Generator: Adobe Illustrator 21.0.0, SVG Export Plug-In . SVG Version: 6.00 Build 0)  -->
<svg version="1.1" id="Layer_1" xmlns="http://www.w3.org/2000/svg" xmlns:xlink="http://www.w3.org/1999/xlink" x="0px" y="0px"
	 viewBox="0 0 277.3 207.3" style="enable-background:new 0 0 277.3 207.3;" xml:space="preserve">
<style type="text/css">
	.st0{fill:#38134C;}
	.st1{font-family:'LaoMN';}
	.st2{font-size:25px;}
</style>
<path class="st0" d="M67.7,47H56.4c-4,0-7-1.1-9-3.2c-2-2.2-3-4.5-3-7.1c0-2.6,1-4.9,3-7.1c2-2.2,5-3.2,9-3.2h27.9
	c0.8,0,1.6,0.3,2.5,1c0.9,0.6,1.3,1.6,1.3,2.9v134.6c0,6.2-1.5,11.5-4.6,15.6c-3,4.2-6.8,7.3-11.4,9.4c-4.6,2.1-9.5,3.1-14.9,3.1
	c-5.4,0-10.3-1.1-14.9-3.2c-4.6-2.2-8.4-5.4-11.4-9.6c-3-4.2-4.6-9.5-4.6-15.7c0-3.8,1.1-6.8,3.2-8.8c2.2-2,4.5-3,7-3
	c2.5,0,4.8,1,7,3c2.2,2,3.2,4.9,3.2,8.8c0,3.4,1.1,5.9,3.2,7.4c2.2,1.6,4.6,2.4,7.2,2.5c2.6,0.1,5-0.7,7.2-2.3
	c2.2-1.6,3.2-4,3.2-7.2V47z"/>
<path class="st0" d="M156.2,73.9c0.8-1.6,1.9-2.6,3.3-3.1c1.4-0.5,2.7-0.5,4-0.1c1.3,0.4,2.4,1.3,3.3,2.5c0.9,1.2,1.4,2.7,1.4,4.5
	v88.4c0,2.4-0.7,4.2-2,5.4c-1.3,1.2-2.8,1.9-4.3,1.9c-1.5,0-3-0.6-4.3-1.9c-1.3-1.2-2-3-2-5.4V96.5l-25.8,56.8
	c-2.9,3.6-5.5,5.3-8,5.3c-2.5,0-5-1.8-7.6-5.3L88.5,96.5v69.5c0,2.4-0.7,4.2-2,5.4c-1.3,1.2-2.8,1.9-4.3,1.9c-1.5,0-3-0.6-4.3-1.9
	c-1.3-1.2-2-3-2-5.4V77.7c0-1.8,0.5-3.3,1.4-4.5c0.9-1.2,2-2.1,3.3-2.5c1.3-0.4,2.6-0.4,4,0.1c1.4,0.5,2.5,1.5,3.3,3.1l34.1,68.5
	L156.2,73.9z"/>
<text transform="matrix(1 0 0 1 168.2556 168.8812)" class="st0 st1 st2">Designs</text>
</svg>
